<svg viewBox="0 0 387 278" fill="none" xmlns="http://www.w3.org/2000/svg">
<path d="M276.056 65.3367L277.47 66.7699L280.296 70.496L283.971 76.2286L286.797 81.3879L290.189 87.9803L293.298 94.8593L298.951 109.191L302.626 119.223L304.604 125.815L306.017 132.408L306.583 135.56L311.388 132.694L316.193 130.401L322.128 128.395L329.195 126.962L331.739 126.675H341.349L348.415 127.821L354.351 129.541L358.59 131.261L363.113 133.554L367.352 136.42L371.31 139.573L376.397 144.732L379.789 149.319L381.485 151.898L381.202 152.471L378.093 148.745L375.267 145.879L372.158 143.299L367.635 140.146L362.265 137.28L354.633 134.701L349.263 133.554L343.327 132.981H340.501L335.978 133.554L332.587 135.274L331.173 136.707L329.477 139.287L328.347 142.439L327.216 148.745L325.52 157.631L322.976 167.949L319.585 179.988L317.041 187.44L313.932 194.892L311.388 200.338L307.713 206.931L304.887 211.803L301.778 216.389L298.386 220.975L295.277 224.988L291.602 229.288L287.362 233.874L283.688 237.6L281.427 239.606L277.187 243.332L272.382 247.058L267.294 250.785L261.924 254.224L255.423 257.95L248.074 261.676L239.877 265.116L229.702 268.555L221.788 270.562L212.46 272.282L205.394 273.141L201.437 273.428H184.478L175.716 272.568L167.236 271.135L159.604 269.415L151.125 266.836L144.059 264.256L137.558 261.39L131.622 258.523L125.121 254.797L118.903 250.785L113.815 247.058L109.858 243.905L106.184 240.753L103.922 238.746L100.531 235.593L95.4428 230.434L93.4643 228.141L90.0725 224.128L86.398 219.256L82.7235 214.096L79.0491 208.077L76.5052 203.491L73.1134 196.899L70.0043 189.733L66.8951 181.134L64.0686 171.102L60.9595 159.064L59.2636 150.752L57.8503 142.439L56.4371 138.713L54.7412 136.42L52.7626 134.701L49.9361 133.554L45.4137 132.981L39.1954 133.267L33.825 134.127L27.6067 135.847L22.2364 138.14L17.9966 140.433L14.0395 143.299L10.3651 146.452L6.6906 150.178L5.27734 151.898V151.038L8.10385 147.025L10.6477 143.873L15.4528 139L19.1272 136.134L23.0843 133.554L30.1506 130.114L36.3689 128.108L42.3045 126.962L44.8484 126.675H54.7412L61.8074 127.821L67.7431 129.541L73.6787 132.121L77.9185 134.414L79.897 135.56L80.1797 132.121L81.5929 125.528L84.1368 117.216L89.2245 103.745L93.4643 93.4262L97.9867 83.9675L100.813 78.5216L104.205 73.0757L107.314 68.4896L109.575 65.6234V66.4833L105.901 72.2158L102.509 78.235L99.9652 83.1076L96.8561 90.2733L93.7469 98.8721L91.4857 106.898L89.7898 114.35L88.3766 123.809L87.8113 130.401V144.446L88.0939 147.312L90.6378 143.299L93.4643 140.146L97.1387 137.28L101.661 134.987L106.466 133.554L108.162 133.267H114.38L118.055 134.127L121.447 135.847L124.273 138.427L125.969 141.866L126.817 146.166V149.032L129.926 147.599L132.753 147.025H135.862L140.102 147.885L144.341 149.605L147.168 151.612L150.277 154.478L153.103 158.491L155.365 163.363L153.386 148.172L152.256 141.006L151.973 137.853V134.414H152.256L153.386 142.726L155.647 154.478L156.495 162.217L156.778 166.803V172.249L156.495 177.121L156.778 176.835L159.039 173.395L161.583 170.529L163.562 168.523L166.671 166.516L170.063 164.796L171.758 164.223H173.172L172.041 157.344V147.312L172.606 146.739L174.02 159.924L175.15 167.376V171.675L174.302 177.695L172.324 184.86L170.628 191.739L169.215 200.052L168.367 208.937V220.402L168.932 226.708L170.063 232.727L172.041 238.746L175.15 244.765L177.411 247.918L180.803 251.931L183.63 254.511L187.587 257.377L191.544 259.67L195.218 261.39L194.088 260.817L189.283 258.237L186.174 255.944L183.347 253.364L180.521 250.498L177.694 246.485L175.433 242.186L173.737 237.026L172.606 231.294L172.041 225.848V216.676L172.889 210.083L174.302 203.778L175.998 198.045L178.259 192.026L181.934 183.427L184.478 175.402L186.456 167.089L187.022 164.796L187.304 165.943L186.174 172.535L184.478 179.988L181.934 187.727L179.107 195.179L177.129 201.771L175.716 208.077L174.868 214.67V224.128L175.716 231.007L176.846 235.88L178.542 240.179L180.521 243.905L183.347 247.632L187.022 251.358L191.261 254.511L197.197 257.664L203.133 259.67L207.372 260.53L209.916 260.817H217.548L220.092 260.53L223.201 258.81L225.745 256.804L228.288 254.511L230.832 251.071L233.376 246.199L234.789 241.899L235.637 236.453L235.355 231.581L234.224 227.281L232.246 222.408L229.419 217.536L226.027 212.95L222.918 209.224L219.809 205.784L216.982 202.345L215.287 199.192L214.439 196.612V191.739L215.569 188.3V187.727L214.156 190.306L213.591 193.172V196.039L214.439 200.338L215.852 203.778L218.113 207.79L223.201 215.529L225.462 220.115L226.875 224.988L227.441 228.714V234.447L226.593 238.46L225.462 241.326L222.918 245.052L220.374 247.345L216.982 249.065L214.721 249.638H208.786L204.263 248.492L199.741 246.199L196.066 243.619L193.523 241.039L190.979 237.026L189.283 232.727L188.152 227.568L187.869 225.275V212.95L189 206.357L190.413 201.485L193.24 194.606L196.349 188.586L198.61 185.434L202.567 180.274L205.959 174.542L208.786 167.949L211.047 161.07L212.743 153.331L213.591 147.599L214.156 147.025V157.057L213.308 162.217L212.743 163.937L215.852 164.796L220.374 167.089L223.483 169.382L226.31 172.249L228.288 175.115L229.419 177.121V166.23L229.984 158.491L231.115 151.038L233.376 139L233.659 136.994H233.941V140.72L231.68 156.198L230.832 163.363L231.963 160.497L234.224 156.771L236.768 153.618L239.595 151.038L242.986 149.032L247.226 147.599L250.335 147.025H253.162L257.119 147.885L259.38 149.032V145.879L260.228 141.58L261.924 138.427L263.902 136.42L266.729 134.701L270.403 133.554L271.817 133.267H277.752L281.992 134.127L285.667 135.56L289.341 137.567L291.885 139.573L294.146 141.58L296.69 145.019L297.82 147.025V147.599H298.386V130.974L297.538 121.802L296.125 113.49L294.146 104.891L291.602 96.5791L288.776 89.1268L285.667 82.2478L281.709 74.5088L277.752 68.203L276.056 65.91V65.3367Z" fill="url(#paint0_linear_6001_208)"/>
<path d="M188.152 4.57178H197.762L209.068 5.43166L219.526 7.15142L226.875 8.87119L236.203 11.7375L244.4 14.8904L251.183 18.0433L258.249 21.7694L263.902 25.2089L267.294 27.502L272.099 30.9415L277.187 34.9543L281.427 38.6804L285.101 42.1199L290.754 47.8525L292.733 50.1455L296.125 54.1583L299.799 59.0309L303.191 63.9036L307.148 70.2094L309.409 74.2222L309.127 74.7954L305.452 71.9292L300.364 68.203L293.863 63.9036L288.21 60.4641L282.275 57.0246L275.208 53.2984L265.881 48.999L255.988 44.9862L245.53 41.2601L235.355 38.1072L236.485 38.6804L240.442 40.4002L242.421 42.1199L243.552 44.6996V46.706L245.248 47.2792L248.922 49.8589L251.466 52.1519L254.575 56.1647L257.119 60.1775L259.38 64.4769L262.207 71.9292L263.62 77.6617L264.185 81.3879L264.468 87.407L263.902 92.5663L262.772 96.8657L261.359 100.305L259.38 103.745L256.271 107.184L253.727 109.477L249.487 112.057L244.117 114.063L241.29 114.637H233.942L231.68 114.35L226.875 116.93L222.353 118.649L217.83 119.796H213.308L208.503 118.936L202.567 117.216L198.328 115.497L199.458 115.21L205.111 116.93L208.786 117.503L207.09 114.923L205.959 111.77L205.676 108.331L206.242 106.038L207.655 103.745L210.199 102.312L211.612 101.738L210.199 100.305L211.612 100.879L215.852 103.172L217.548 104.605L219.244 107.471L220.092 109.191V109.764L221.505 110.337L223.766 110.051L226.027 109.477L224.614 108.904L224.049 107.471L222.636 106.898L220.657 103.172L216.7 100.879L216.417 100.305L218.113 100.879L221.788 102.312L228.006 103.745L231.68 105.178L232.246 105.465L231.68 107.184L230.55 108.331H229.984V108.904L233.094 108.331L234.507 107.471L235.072 106.611L237.616 107.184L237.899 106.324V103.745L237.616 101.165H234.789L233.942 100.592V99.4454L237.616 100.305L236.768 96.0059L235.355 98.0122L233.094 98.2989L230.832 96.5791L227.723 96.0059L226.027 94.8593L225.179 93.1396L226.593 93.7128L230.267 95.146L229.419 92.853L219.809 85.9739L216.417 83.6809L213.025 79.9547L209.351 77.0885L205.394 74.5088L202.567 72.2158L200.871 69.9228L199.741 67.9164L200.023 70.2094L201.719 73.6489L203.981 75.6553L206.807 77.6617L208.503 79.0949L208.786 80.8146L207.372 81.3879L203.698 80.2414L198.328 78.5216L192.675 77.3751L190.413 77.0885L177.694 76.8018L174.02 75.942L171.476 74.5088L172.606 75.942L175.998 77.9483L178.542 78.8082L181.934 79.3815L189.565 79.6681L194.936 80.2414L198.328 81.3879L201.437 83.3943L202.567 84.8274V86.5472L201.154 87.6937L193.24 89.4134L189.848 90.8466L192.109 91.9931V93.1396L185.326 95.7192L183.347 96.8657L185.891 97.7256L186.174 98.8721L184.195 100.305L179.39 102.598L177.411 104.031L177.129 104.605L178.542 104.891L179.673 106.038L179.39 107.471L174.302 111.197L169.497 114.637L168.367 115.21L169.78 116.07L170.063 117.216L168.932 118.076L166.105 118.936H161.583L158.191 117.216L155.082 114.923L153.669 114.35L152.256 114.637H145.189L141.232 113.777L136.71 112.057L133.035 109.764L130.209 107.471L127.382 104.605L124.556 100.019L122.86 95.4326L122.012 91.1332L121.729 88.5535V83.6809L122.577 77.3751L124.273 71.0693L126.534 65.0501L129.644 59.0309L132.47 55.0182L135.014 52.1519L137.84 49.2856L141.797 46.706L142.363 46.4193L143.211 42.9798L144.907 40.9734L148.864 38.967L150.842 38.1072L140.667 41.2601L131.622 44.413L123.708 47.5659L116.642 50.7188L109.575 54.1583L103.357 57.3112L96.8561 61.0373L90.0725 65.3367L83.8542 69.6362L78.4838 73.6489L76.7879 74.7954L77.3532 73.0757L80.1797 68.203L83.5715 63.0437L86.398 59.0309L89.2245 55.3048L92.3337 51.5786L94.8775 48.7124L96.8561 46.4193L103.357 39.8269L105.618 37.8205L109.575 34.381L115.228 30.0816L120.599 26.3554L126.534 22.6293L132.753 19.1898L139.819 15.7502L149.146 12.0241L157.343 9.44444L165.257 7.43805L175.15 5.71829L183.347 4.8584L188.152 4.57178Z" fill="url(#paint1_linear_6001_208)"/>
<path fill-rule="evenodd" clip-rule="evenodd" d="M276.199 58.9844L280.912 63.7634L284.026 67.8693L287.883 73.8865L290.814 79.2361L294.286 85.9848L297.489 93.0715L303.204 107.559L306.945 117.772L309.016 124.672L309.811 128.385L314.484 126.155L320.948 123.97L328.489 122.441L331.484 122.103H341.714L349.413 123.352L355.838 125.214L360.472 127.094L365.419 129.602L370.042 132.728L374.352 136.162L379.859 141.746L383.519 146.694L386.726 151.572L382.189 160.772L374.726 151.827L372.193 149.258L369.405 146.946L365.261 144.057L360.459 141.494L353.43 139.118L348.57 138.08L343.109 137.553H340.787L337.328 137.991L335.299 139.02L334.724 139.603L333.576 141.35L332.759 143.628L331.692 149.581L329.968 158.611L327.377 169.122L323.931 181.352L321.298 189.067L318.093 196.747L315.44 202.428L311.666 209.198L308.74 214.244L305.488 219.04L302.01 223.743L298.802 227.883L294.999 232.333L290.648 237.038L286.816 240.925L284.425 243.047L280.08 246.865L275.115 250.716L269.862 254.563L264.277 258.139L257.578 261.979L249.98 265.832L241.483 269.397L230.987 272.945L222.757 275.031L213.146 276.804L205.832 277.694L201.601 278H184.256L175.116 277.103L166.36 275.623L158.445 273.84L149.687 271.175L142.365 268.502L135.656 265.544L129.505 262.574L122.761 258.709L116.33 254.558L111.059 250.698L106.964 247.436L103.198 244.204L100.869 242.138L97.3662 238.881L92.1023 233.543L90.0094 231.118L86.5205 226.99L82.7321 221.966L78.9275 216.624L75.119 210.386L72.4942 205.654L69.0007 198.863L65.7746 191.428L62.5604 182.539L59.6752 172.299L56.524 160.097L54.7894 151.596L53.4384 143.65L52.4077 140.932L51.385 139.549L50.3564 138.655L48.7798 138.016L45.2319 137.566L39.6597 137.823L34.7907 138.602L29.1082 140.174L24.2103 142.265L20.4175 144.316L16.8541 146.898L13.466 149.805L10.0701 153.248L0.725586 164.62V149.585L4.47388 144.263L7.25415 140.817L12.4271 135.572L16.4875 132.404L20.8441 129.564L28.4537 125.86L35.239 123.671L41.6201 122.438L44.5941 122.103H55.1067L62.8051 123.352L69.2842 125.229L75.6655 128.003L76.3295 128.362L77.1845 124.374L79.829 115.732L84.9919 102.062L89.3056 91.5632L93.9159 81.9208L96.8595 76.2492L100.393 70.5759L103.644 65.78L114.128 52.4917V67.8277L109.799 74.5812L106.507 80.4231L104.073 85.0851L101.086 91.9685L98.0821 100.277L95.8976 108.03L94.266 115.2L92.8996 124.345L92.3634 130.598V135.217L94.6945 133.398L99.9743 130.721L105.437 129.092L107.782 128.696H114.904L119.619 129.799L124.05 132.046L127.971 135.624L130.317 140.382L130.786 142.76L132.298 142.454H136.317L141.416 143.488L146.537 145.565L148.597 147.028L147.736 141.57L147.421 138.059V129.842H156.228L157.879 141.982L160.152 153.793L161.032 161.825L161.204 164.61L164.409 162.542L167.984 160.729L167.489 157.719V145.431L176.108 136.691L178.535 159.335L179.702 167.03V171.997L178.84 178.116L180.09 174.175L182.034 166.009L182.603 163.698L191.44 163.698L191.952 165.774L190.639 173.433L188.868 181.216L186.224 189.258L183.419 196.654L181.534 202.935L180.203 208.874L179.42 214.964V223.846L180.204 230.205L181.203 234.512L182.68 238.256L184.364 241.428L186.789 244.625L190.011 247.892L193.694 250.631L198.999 253.449L204.314 255.245L208.078 256.009L210.171 256.245H217.293L218.687 256.088L220.681 254.985L222.816 253.301L224.908 251.415L226.966 248.632L229.171 244.408L229.444 243.577L226.364 248.089L222.965 251.153L218.585 253.374L215.287 254.21H208.22L202.661 252.801L197.4 250.133L193.122 247.13L189.945 243.908L186.906 239.115L184.916 234.069L183.661 228.342L183.318 225.557V212.559L184.558 205.327L186.112 199.969L189.108 192.677L192.462 186.185L194.96 182.702L198.794 177.702L201.895 172.461L204.526 166.326L206.652 159.859L208.264 152.503L209.307 145.446L218.708 135.913V157.432L218.148 160.839L222.764 163.179L224.96 164.799L225.458 157.978L226.627 150.27L228.884 138.255L229.706 132.422H238.494V141.053L237.641 146.888L241.085 144.851L246.084 143.161L249.921 142.454H253.649L255.343 142.822L255.897 140.014L258.23 135.676L261.064 132.802L264.847 130.5L269.275 129.119L271.362 128.696H278.208L283.276 129.724L287.586 131.404L291.852 133.734L293.834 135.297V131.186L293.022 122.399L291.66 114.39L289.748 106.079L287.295 98.0661L284.573 90.8872L281.567 84.2379L277.752 76.7765L273.994 70.7887L271.505 67.4223V56.6215L264.079 53.1985L255.279 49.6293L258.3 53.5273L261.058 57.8783L263.535 62.5885L266.559 70.561L268.089 76.7661L268.721 80.9347L269.032 87.5503L268.39 93.4048L267.096 98.328L265.451 102.33L263.078 106.456L259.485 110.431L256.45 113.166L251.478 116.191L245.369 118.474L241.746 119.209H233.656L233.372 119.173M255.988 44.9863L265.881 48.9991L275.209 53.2985L282.275 57.0246L288.211 60.4641L293.864 63.9037L300.365 68.2031L305.452 71.9292L309.127 74.7955L309.409 74.2223L307.148 70.2095L303.191 63.9037L299.799 59.031L296.125 54.1584L292.733 50.1456L290.754 47.8526L285.101 42.12L281.427 38.6805L277.187 34.9543L272.1 30.9416L267.294 27.502L263.903 25.209L258.25 21.7695L251.183 18.0433L244.4 14.8904L236.203 11.7375L226.875 8.87126L219.527 7.1515L209.068 5.43174L197.762 4.57186H188.152L183.347 4.85848L175.15 5.71836L165.258 7.43813L157.343 9.44452L149.147 12.0242L139.819 15.7503L132.753 19.1898L126.535 22.6294L120.599 26.3555L115.229 30.0817L109.576 34.3811L105.618 37.8206L103.357 39.827L96.8563 46.4194L94.8777 48.7124L92.3339 51.5787L89.2247 55.3049L86.3982 59.031L83.5717 63.0438L80.1799 68.2031L77.3534 73.0757L76.7881 74.7955L74.5273 71.422M78.484 73.649L76.7881 74.7955L80.1619 75.9142M257.119 60.1775L254.575 56.1647L251.466 52.152L248.922 49.8589L245.248 47.2793L243.552 46.706V44.6997L242.421 42.12L240.443 40.4003L236.486 38.6805L235.355 38.1072L245.53 41.2601L255.988 44.9863M259.38 103.745L256.271 107.184L253.727 109.477L249.488 112.057L244.117 114.063L241.291 114.637H233.942L231.681 114.35L226.875 116.93L222.353 118.649L217.831 119.796H213.308L208.503 118.936L202.568 117.216L198.328 115.497L199.458 115.21L205.111 116.93L208.786 117.503L207.09 114.923L205.959 111.77L205.677 108.331L206.242 106.038L207.655 103.745L210.199 102.312L211.612 101.738L210.199 100.305L211.612 100.879L215.852 103.172L217.548 104.605L219.244 107.471L220.092 109.191V109.764L221.505 110.337L223.766 110.051L226.028 109.477L224.614 108.904L224.049 107.471L222.636 106.898L220.657 103.172L216.7 100.879L216.417 100.305L218.113 100.879L221.788 102.312L228.006 103.745L231.681 105.178L232.246 105.465L231.681 107.184L230.55 108.331H229.985V108.904L233.094 108.331L234.507 107.471L235.072 106.611L237.616 107.184L237.899 106.324V103.745L237.616 101.165H234.79L233.942 100.592V99.4454L237.616 100.305L236.768 96.0059L235.355 98.0123L233.094 98.2989L230.833 96.5792L227.723 96.0059L226.028 94.8594L225.18 93.1396L226.593 93.7129L230.267 95.146L229.419 92.853L219.809 85.974L216.417 83.681L213.026 79.9548L209.351 77.0885L205.394 74.5089L202.568 72.2159L200.872 69.9228L199.741 67.9165L200.024 70.2095L201.72 73.649L203.981 75.6554L206.807 77.6618L208.503 79.0949L208.786 80.8147L207.373 81.3879L203.698 80.2414L198.328 78.5217L192.675 77.3752L190.414 77.0885L177.694 76.8019L174.02 75.942L171.476 74.5089L172.607 75.942L175.998 77.9484L178.542 78.8083L181.934 79.3815L189.566 79.6682L194.936 80.2414L198.328 81.3879L201.437 83.3943L202.568 84.8275V86.5472L201.154 87.6937L193.24 89.4135L189.848 90.8466L192.109 91.9931V93.1396L185.326 95.7193L183.347 96.8658L185.891 97.7257L186.174 98.8722L184.195 100.305L179.39 102.598L177.412 104.031L177.129 104.605L178.542 104.891L179.673 106.038L179.39 107.471L174.302 111.197L169.497 114.637L168.367 115.21L169.78 116.07L170.063 117.216L168.932 118.076L166.106 118.936H161.583L158.191 117.216L155.082 114.923L153.669 114.35L152.256 114.637H145.19L141.232 113.777L136.71 112.057L133.036 109.764L130.209 107.471L127.383 104.605L124.556 100.019L122.86 95.4327L122.012 91.1333L121.73 88.5536V83.681L122.577 77.3752L124.273 71.0694L126.535 65.0502L129.644 59.031L132.47 55.0182L135.014 52.152L137.841 49.2857L141.798 46.706L142.363 46.4194L143.211 42.9799L144.907 40.9735L148.864 38.9671L150.843 38.1072L140.667 41.2601L131.622 44.413L123.708 47.5659L116.642 50.7188L109.576 54.1584L103.357 57.3113L96.8563 61.0374L90.0727 65.3368L83.8544 69.6362L78.484 73.649M153.096 119.13L152.711 119.209H144.703L139.938 118.173L134.684 116.175L130.394 113.498L127.152 110.868L123.784 107.453L120.447 102.038L118.466 96.6807L117.509 91.8288L117.178 88.8044V83.3736L118.106 76.4693L119.936 69.663L122.37 63.1841L125.747 56.6469L128.902 52.168L131.696 49.0201L134.951 45.7188L139.526 42.7364L139.746 42.6248M241.508 109.929L242.451 107.06V106.131L243.452 106.365L241.907 98.5348L241.695 96.5934H241.525L239.174 84.6747L233.978 92.0506L233.2 89.9449L222.402 82.2154L222.351 82.1813M239.631 110.065L238.546 109.625ZM218.792 99.1245L218.364 99.3373ZM215.125 105.244L215.867 104.943ZM210.963 99.5453L210.199 100.305L209.73 101.472M261.359 100.305L262.772 96.8658L263.903 92.5664L264.468 87.4071L264.185 81.3879L263.62 77.6618L262.207 71.9292L259.38 64.4769L257.119 60.1775M302.714 75.5823L297.771 71.9616L291.432 67.7695L285.894 64.3998L280.079 61.0302L276.199 58.9844M302.714 75.5823L310.734 81.838L314.559 74.0795L311.057 67.8634L306.984 61.3736L303.48 56.3401L299.677 51.2966L296.188 47.169L294.095 44.7434L288.272 38.8378L284.478 35.2871L280.094 31.4337L274.828 27.2802L269.887 23.7435L266.354 21.3553L260.489 17.7867L253.199 13.9423L246.172 10.6763L237.685 7.41177L228.059 4.45396L220.412 2.66434L209.609 0.887909L197.935 0H188.017L182.976 0.300735L174.525 1.18724L164.311 2.96284L156.105 5.04326L147.623 7.71269L137.983 11.5636L130.661 15.1276L124.229 18.6856L118.098 22.5343L112.56 26.3767L106.709 30.8264L102.622 34.3789L100.23 36.5016L93.5155 43.3103L93.4164 43.4252M297.538 121.802L298.386 130.974V147.599H297.821V147.026L296.69 145.019L294.146 141.58L291.885 139.573L289.341 137.567L285.667 135.56L281.992 134.127L277.753 133.267H271.817L270.404 133.554L266.729 134.701L263.903 136.42L261.924 138.427L260.228 141.58L259.38 145.879V149.032L257.119 147.885L253.162 147.026H250.335L247.226 147.599L242.987 149.032L239.595 151.038L236.768 153.618L234.224 156.771L231.963 160.497L230.833 163.363L231.68 156.198L233.942 140.72V136.994H233.659L233.376 139L231.115 151.038L229.985 158.491L229.419 166.23V177.121L228.289 175.115L226.31 172.249L223.484 169.382L220.375 167.089L215.852 164.796L212.743 163.937L213.308 162.217L214.156 157.057V147.026L213.591 147.599L212.743 153.331L211.047 161.07L208.786 167.949L205.959 174.542L202.568 180.274L198.61 185.434L196.349 188.586L193.24 194.606L190.414 201.485L189 206.357L187.87 212.95V225.275L188.152 227.568L189.283 232.727L190.979 237.026L193.523 241.039L196.067 243.619L199.741 246.199L204.263 248.492L208.786 249.638H214.721L216.983 249.065L220.375 247.345L222.918 245.052L225.462 241.326L226.593 238.46L227.441 234.447V228.714L226.875 224.988L225.462 220.115L223.201 215.529L218.113 207.791L215.852 203.778L214.439 200.338L213.591 196.039V193.173L214.156 190.306L215.569 187.727V188.3L214.439 191.739V196.612L215.287 199.192L216.983 202.345L219.809 205.784L222.918 209.224L226.028 212.95L229.419 217.536L232.246 222.409L234.224 227.281L235.355 231.581L235.638 236.453L234.79 241.899L233.376 246.199L230.833 251.071L228.289 254.511L225.745 256.804L223.201 258.81L220.092 260.53L217.548 260.817H209.916L207.373 260.53L203.133 259.67L197.197 257.664L197.119 257.622L197.114 257.619L191.262 254.511L187.022 251.358L183.347 247.632L180.521 243.906L178.542 240.179L176.846 235.88L175.716 231.007L174.868 224.128V214.67L175.716 208.077L177.129 201.771L179.108 195.179L181.934 187.727L184.478 179.988L186.174 172.535L187.304 165.943L187.022 164.796L186.456 167.089L184.478 175.402L181.934 183.427L178.26 192.026L175.998 198.045L174.302 203.778L172.889 210.084L172.041 216.676V225.848L172.607 231.294L173.737 237.026L175.433 242.186L177.694 246.485L180.521 250.498L183.347 253.364L186.174 255.944L189.283 258.237L194.088 260.817L195.219 261.39L194.07 260.852L191.544 259.67L189.233 258.331L187.587 257.377L183.63 254.511L180.803 251.931L177.412 247.918L175.15 244.765L172.041 238.746L170.063 232.727L168.932 226.708L168.367 220.402V208.937L169.215 200.052L170.628 191.739L172.324 184.86L174.302 177.695L175.15 171.675V167.376L174.02 159.924L172.607 146.739L172.041 147.312V157.344L173.172 164.223H171.759L170.063 164.796L166.671 166.516L163.562 168.523L161.583 170.529L159.039 173.395L156.778 176.835L156.496 177.121L156.778 172.249V166.803L156.496 162.217L155.648 154.478L153.386 142.726L152.256 134.414H151.973V137.853L152.256 141.006L153.386 148.172L155.365 163.363L153.104 158.491L150.277 154.478L147.168 151.612L144.342 149.605L140.102 147.885L135.862 147.026H132.753L129.926 147.599L126.817 149.032V146.166L125.969 141.866L124.273 138.427L121.447 135.847L118.055 134.127L114.381 133.267H108.162L106.466 133.554L101.661 134.987L97.1389 137.28L93.4645 140.147L90.638 143.299L88.0941 147.312L87.8115 144.446V130.401L88.3768 123.809L89.79 114.35L91.4859 106.898L93.7471 98.8722L96.8563 90.2734L99.9654 83.1077L102.509 78.235L105.901 72.2159L109.576 66.4833V65.6234L107.314 68.4897L104.205 73.0757L100.813 78.5217L97.9869 83.9676L93.4645 93.4263L89.2247 103.745L84.137 117.216L81.5931 125.529L80.1799 132.121L79.8973 135.56L77.9187 134.414L73.6789 132.121L67.7433 129.541L61.8076 127.822L54.7414 126.675H44.8486L42.3048 126.962L36.3691 128.108L30.1508 130.115L23.0845 133.554L19.1274 136.134L15.453 139L10.6479 143.873L8.10405 147.026L5.27754 151.038V151.898L6.6908 150.178L10.3653 146.452L14.0397 143.299L17.9968 140.433L22.2366 138.14L27.6069 135.847L33.8252 134.127L39.1956 133.267L45.4139 132.981L49.9363 133.554L52.7628 134.701L54.7414 136.42L56.4373 138.713L57.8505 142.44L59.2638 150.752L60.9597 159.064L64.0688 171.102L66.8953 181.134L70.0045 189.733L73.1136 196.899L76.5054 203.491L79.0493 208.077L82.7238 214.096L86.3982 219.256L90.0727 224.128L93.4645 228.141L95.443 230.434L100.531 235.593L103.923 238.746L106.184 240.753L109.858 243.906L113.815 247.058L118.903 250.785L125.121 254.797L131.622 258.524L137.558 261.39L144.059 264.256L151.125 266.836L159.605 269.415L167.236 271.135L175.716 272.568L184.478 273.428H201.437L205.394 273.142L212.46 272.282L221.788 270.562L229.702 268.555L239.877 265.116L248.074 261.676L255.423 257.95L261.924 254.224L267.294 250.785L272.382 247.058L277.187 243.332L281.427 239.606L283.688 237.6L287.363 233.874L291.602 229.288L295.277 224.988L298.386 220.975L301.778 216.389L304.887 211.803L307.713 206.931L311.388 200.338L313.932 194.892L317.041 187.44L319.585 179.988L322.977 167.949L325.52 157.631L327.216 148.745L328.347 142.44L329.478 139.287L331.173 136.707L332.587 135.274L335.979 133.554L340.501 132.981H343.327L349.263 133.554L354.633 134.701L362.265 137.28L367.635 140.147L372.158 143.299L375.267 145.879L378.093 148.745L381.203 152.471L381.485 151.898L379.789 149.319L376.398 144.733L371.31 139.573L367.353 136.42L363.113 133.554L358.591 131.261L354.351 129.541L348.415 127.822L341.349 126.675H331.739L329.195 126.962L322.129 128.395L316.193 130.401L311.388 132.694L306.583 135.56L306.018 132.408L304.604 125.815L302.626 119.223L298.951 109.191L293.298 94.8594L290.189 87.9804L286.797 81.3879L283.971 76.2286L280.296 70.4961L277.47 66.7699L276.057 65.3368V65.9101L277.753 68.2031L281.71 74.5089L285.667 82.2478L288.776 89.1269L291.602 96.5792L294.146 104.891L296.125 113.49L297.538 121.802ZM228.762 121.101L223.72 123.018L218.396 124.368H212.906L207.47 123.395L201.08 121.544L183.694 114.491L199.569 110.467L204.998 112.118M228.762 121.101L229.021 120.962ZM81.1149 77.3815L68.2958 86.0478L73.1803 71.1879L76.311 65.7909L79.8134 60.4633L82.7286 56.3246L85.668 52.4497L88.8897 48.5886L88.9359 48.5366M81.1149 77.3815L81.201 77.3171ZM229.021 120.962L233.445 118.587ZM233.445 118.587L233.826 118.382ZM199.068 113.656L198.328 115.497ZM198.328 115.497L199.442 119.929ZM131.789 49.2649L132.02 49.1731ZM132.02 49.1731L133.301 48.6628ZM81.201 77.3171L86.5714 73.3043ZM261.359 100.305L259.38 103.745Z" fill="url(#paint2_linear_6001_208)"/>
<defs>
<linearGradient id="paint0_linear_6001_208" x1="193.381" y1="4.57178" x2="193.381" y2="273.428" gradientUnits="userSpaceOnUse">
<stop stop-color="#121212"/>
<stop offset="1" stop-color="#033C27"/>
</linearGradient>
<linearGradient id="paint1_linear_6001_208" x1="193.381" y1="4.57178" x2="193.381" y2="273.428" gradientUnits="userSpaceOnUse">
<stop stop-color="#121212"/>
<stop offset="1" stop-color="#033C27"/>
</linearGradient>
<linearGradient id="paint2_linear_6001_208" x1="194.058" y1="169.159" x2="193.375" y2="273.428" gradientUnits="userSpaceOnUse">
<stop stop-color="#53FF87" stop-opacity="0"/>
<stop offset="1" stop-color="white"/>
</linearGradient>
</defs>
</svg>
