<svg width="77" height="68" viewBox="0 0 77 68" fill="none" xmlns="http://www.w3.org/2000/svg">
<g id="bithive">
<path id="Vector" d="M17.2785 58.0615C14.3542 58.0615 12.5298 60.9534 13.9985 63.2604L15.6801 65.9021C16.3589 66.9686 17.6084 67.6247 18.96 67.6247H57.6411C58.9928 67.6247 60.2424 66.9686 60.9211 65.9021L62.6027 63.2604C64.0714 60.9534 62.2471 58.0615 59.3227 58.0615H17.2785Z" fill="url(#paint0_linear_20_238)"/>
<path id="Vector_2" d="M57.6413 0C58.993 0 60.2422 0.656243 60.9213 1.72263L62.1678 3.68109C63.6365 5.98825 61.8122 8.88001 58.8878 8.88001H17.7133C14.789 8.88001 12.9647 5.98825 14.4333 3.68109L15.68 1.72263C16.3589 0.656243 17.6084 0 18.96 0H57.6413Z" fill="url(#paint1_linear_20_238)"/>
<path id="Vector_3" d="M70.9223 17.4336C70.2433 16.3672 68.9938 15.7109 67.6424 15.7109H8.95888C7.60728 15.7109 6.35776 16.3672 5.67893 17.4336L0.953599 24.8567C-0.515083 27.1637 1.30929 30.0556 4.23355 30.0556H47.6591C49.7265 30.0556 51.4022 31.5846 51.4022 33.4709C51.4022 34.4587 50.943 35.3483 50.2083 35.972H54.8424C54.108 35.3483 53.6485 34.4587 53.6485 33.4709C53.6485 31.5846 55.3242 30.0556 57.3916 30.0556H72.3676C75.2919 30.0556 77.1163 27.1637 75.6475 24.8567L70.9223 17.4336Z" fill="url(#paint2_linear_20_238)"/>
<path id="Vector_4" d="M59.0145 36.8862C59.2089 37.472 59.3138 38.0936 59.3138 38.7374C59.3138 42.2575 56.1861 45.111 52.328 45.111C48.4699 45.111 45.3422 42.2575 45.3422 38.7374C45.3422 38.0936 45.4468 37.472 45.6415 36.8862H3.79874C0.87448 36.8862 -0.949897 39.7779 0.518784 42.0851L5.24411 49.5081C5.92294 50.5746 7.17243 51.2307 8.52404 51.2307H68.0772C69.4288 51.2307 70.6781 50.5746 71.3571 49.5081L76.0823 42.0851C77.551 39.7779 75.7267 36.8862 72.8023 36.8862H59.0145Z" fill="url(#paint3_linear_20_238)"/>
<path id="Vector_5" d="M48.6909 38.7376C48.6909 36.8262 50.389 35.2769 52.4839 35.2769C54.5785 35.2769 56.2769 36.8262 56.2769 38.7376C56.2769 40.649 54.5785 42.1983 52.4839 42.1983C50.389 42.1983 48.6909 40.649 48.6909 38.7376Z" fill="url(#paint4_linear_20_238)"/>
</g>
<defs>
<linearGradient id="paint0_linear_20_238" x1="38.3005" y1="7.62452e-05" x2="37.8406" y2="67.0671" gradientUnits="userSpaceOnUse">
<stop stop-color="#FCD267"/>
<stop offset="1" stop-color="#8C3BB1"/>
</linearGradient>
<linearGradient id="paint1_linear_20_238" x1="38.3003" y1="-1.42344e-09" x2="37.8404" y2="67.067" gradientUnits="userSpaceOnUse">
<stop stop-color="#FCD267"/>
<stop offset="1" stop-color="#8C3BB1"/>
</linearGradient>
<linearGradient id="paint2_linear_20_238" x1="38.3004" y1="0.000171938" x2="37.8405" y2="67.0672" gradientUnits="userSpaceOnUse">
<stop stop-color="#FCD267"/>
<stop offset="1" stop-color="#8C3BB1"/>
</linearGradient>
<linearGradient id="paint3_linear_20_238" x1="38.3004" y1="-5.85482e-06" x2="37.8405" y2="67.067" gradientUnits="userSpaceOnUse">
<stop stop-color="#FCD267"/>
<stop offset="1" stop-color="#8C3BB1"/>
</linearGradient>
<linearGradient id="paint4_linear_20_238" x1="38.3004" y1="0.000208515" x2="37.8405" y2="67.0672" gradientUnits="userSpaceOnUse">
<stop stop-color="#FCD267"/>
<stop offset="1" stop-color="#8C3BB1"/>
</linearGradient>
</defs>
</svg>
