<svg width="125" height="125" viewBox="0 0 125 125" fill="none" xmlns="http://www.w3.org/2000/svg">
<g id="Group 5">
<rect id="Rectangle 38" width="125" height="125" rx="15" fill="white"/>
<g id="bitte">
<path id="Vector" fill-rule="evenodd" clip-rule="evenodd" d="M12.8168 71.6364L75.1587 75.4428C75.5637 75.5514 75.9322 75.7492 76.2309 76.0184C76.5296 76.2874 76.7493 76.6195 76.8698 76.9843L81.0949 89.7654C81.2512 90.2383 81.5728 90.653 82.0119 90.9479C82.4509 91.2428 82.984 91.4021 83.5317 91.4021C84.0793 91.4021 84.6123 91.2428 85.0514 90.9479C85.4904 90.653 85.8121 90.2383 85.9684 89.7654L90.1935 76.9843C90.3141 76.6195 90.5336 76.2874 90.8324 76.0184C91.1312 75.7492 91.4996 75.5514 91.9045 75.4428L106.092 71.6364C106.617 71.4956 107.077 71.2059 107.404 70.8103C107.732 70.4148 107.909 69.9346 107.909 69.4411C107.909 68.9477 107.732 68.4676 107.404 68.0721C107.077 67.6765 106.617 67.3868 106.092 67.2459L91.9045 63.4396C91.4996 63.3309 91.1312 63.1331 90.8324 62.864C90.5336 62.5948 90.3141 62.2629 90.1935 61.8981L85.9684 49.1169C85.8121 48.644 85.4904 48.2293 85.0514 47.9344C84.6123 47.6394 84.0793 47.4802 83.5317 47.4802C82.984 47.4802 82.4509 47.6394 82.0119 47.9344C81.5728 48.2293 81.2512 48.644 81.0949 49.1169L76.8698 61.8981C76.7493 62.2629 76.5296 62.5948 76.2309 62.864C75.9321 63.1331 75.5637 63.3309 75.1587 63.4396L12.8168 67.2459C12.2919 67.3868 11.8316 67.6765 11.5042 68.0721C11.1768 68.4676 11 68.9478 11 69.4412C11 69.9346 11.1768 70.4148 11.5042 70.8103C11.8316 71.2059 12.2919 71.4956 12.8168 71.6364Z" fill="black"/>
<path id="Vector_2" fill-rule="evenodd" clip-rule="evenodd" d="M43.9 44.2714L52.2818 46.5201C52.521 46.5843 52.7387 46.7012 52.9151 46.8602C53.0917 47.0192 53.2214 47.2153 53.2927 47.4308L55.7888 54.9818C55.8811 55.2612 56.0711 55.5062 56.3305 55.6805C56.5899 55.8547 56.9048 55.9488 57.2284 55.9488C57.5519 55.9488 57.8669 55.8547 58.1262 55.6805C58.3857 55.5062 58.5757 55.2612 58.6681 54.9818L61.1641 47.4308C61.2354 47.2153 61.3651 47.0192 61.5417 46.8602C61.7181 46.7012 61.9358 46.5843 62.175 46.5201L70.5568 44.2714C70.8669 44.1882 71.1388 44.017 71.3323 43.7833C71.5257 43.5496 71.6301 43.2659 71.6301 42.9744C71.6301 42.6829 71.5257 42.3992 71.3323 42.1656C71.1388 41.9318 70.8669 41.7607 70.5568 41.6775L62.175 39.4287C61.9358 39.3645 61.7181 39.2477 61.5417 39.0887C61.3651 38.9297 61.2354 38.7335 61.1641 38.518L58.6681 30.967C58.5757 30.6876 58.3857 30.4426 58.1262 30.2684C57.8669 30.0941 57.5519 30 57.2284 30C56.9048 30 56.5899 30.0941 56.3305 30.2684C56.0711 30.4426 55.8811 30.6876 55.7888 30.967L53.2927 38.518C53.2214 38.7335 53.0917 38.9297 52.9151 39.0887C52.7387 39.2477 52.521 39.3645 52.2818 39.4287L43.9 41.6775C43.5899 41.7607 43.3179 41.9318 43.1245 42.1656C42.9311 42.3992 42.8267 42.6829 42.8267 42.9744C42.8267 43.2659 42.9311 43.5496 43.1245 43.7833C43.3179 44.017 43.5899 44.1882 43.9 44.2714Z" fill="black"/>
</g>
</g>
</svg>
