<svg width="26" height="35" viewBox="0 0 26 35" fill="none" xmlns="http://www.w3.org/2000/svg">
<g id="Layer_1">
<g clip-path="url(#clip0_30_295)">
<path id="Vector" d="M15.6321 29.5554H10.2625C9.54211 29.5554 8.95599 28.9617 8.95599 28.2321V27.9691C8.95599 26.6267 8.21076 25.4036 7.012 24.7763C2.47767 22.4055 -0.266234 17.5319 0.0204762 12.3595C0.385631 5.7871 5.54751 0.48766 12.0269 0.0321921C15.6641 -0.2224 19.1295 1.01699 21.7828 3.5243C24.3991 5.99693 25.8995 9.49295 25.8995 13.1166C25.8995 18.0898 23.1766 22.5751 18.7931 24.8222C17.6667 25.4002 16.9386 26.6357 16.9386 27.9702V28.2315C16.9386 28.9611 16.3524 29.5548 15.6321 29.5548V29.5554ZM12.9589 1.00524C12.6722 1.00524 12.3849 1.01531 12.0954 1.03545C6.1143 1.45567 1.34906 6.34832 1.01208 12.416C0.746918 17.1928 3.28035 21.6938 7.4672 23.8827C8.99797 24.6834 9.9487 26.249 9.9487 27.9691V28.2321C9.9487 28.4072 10.0896 28.5493 10.2619 28.5493H15.6315C15.8044 28.5493 15.9453 28.4066 15.9453 28.2321V27.9708C15.9453 26.2608 16.8866 24.6734 18.3439 23.9258C22.3916 21.8505 24.9062 17.7087 24.9062 13.1171C24.9062 9.77161 23.5207 6.5436 21.105 4.2601C18.866 2.14391 16 1.00524 12.9583 1.00524H12.9589Z" fill="#00EC97"/>
<path id="Vector_2" d="M14.7199 35H11.1772C10.9397 35 10.7353 34.8294 10.69 34.5927C10.6447 34.3566 10.7712 34.1204 10.9922 34.0304L12.9676 33.2252H10.3646C10.1193 33.2252 9.91107 33.0439 9.87406 32.7982C9.83704 32.5526 9.98288 32.3165 10.2166 32.2426L12.7196 31.4514H9.92046C9.6459 31.4514 9.42383 31.2265 9.42383 30.949C9.42383 30.6714 9.6459 30.4459 9.92046 30.4459H15.9762C16.2214 30.4459 16.4297 30.6272 16.4667 30.8729C16.5037 31.1185 16.3579 31.3546 16.1242 31.4285L13.6212 32.2197H15.5326C15.7701 32.2197 15.9745 32.3909 16.0198 32.627C16.0651 32.8631 15.9386 33.0993 15.7176 33.1894L13.7422 33.9945H14.7199C14.994 33.9945 15.2166 34.2195 15.2166 34.4976C15.2166 34.7757 14.994 35 14.7199 35Z" fill="#00EC97"/>
</g>
</g>
<defs>
<clipPath id="clip0_30_295">
<rect width="25.9" height="35" rx="12.95" fill="white"/>
</clipPath>
</defs>
</svg>
