<svg width="24" height="35" viewBox="0 0 24 35" fill="none" xmlns="http://www.w3.org/2000/svg">
<g id="Group 22">
<path id="Vector" d="M11.9675 29.2214C8.57611 29.2214 5.81641 26.4617 5.81641 23.0703C5.81641 19.6789 8.57611 16.9192 11.9675 16.9192C15.3589 16.9192 18.1186 19.6789 18.1186 23.0703C18.1186 26.4617 15.3589 29.2214 11.9675 29.2214ZM11.9675 17.9233C9.12904 17.9233 6.82053 20.2335 6.82053 23.0703C6.82053 25.9071 9.12904 28.2189 11.9675 28.2189C14.806 28.2189 17.1145 25.9104 17.1145 23.0703C17.1145 20.2302 14.806 17.9233 11.9675 17.9233Z" fill="#00EC97"/>
<path id="Vector_2" d="M11.7641 25.9925C11.3228 25.9925 10.8535 25.8874 10.4433 25.6971C10.1923 25.5806 10.0824 25.282 10.1989 25.031C10.3154 24.78 10.614 24.67 10.865 24.7865C11.1456 24.9178 11.4655 24.9883 11.7641 24.9883C12.1759 24.9883 12.614 24.8193 12.614 24.3452C12.614 24.0269 12.4811 23.8021 11.7756 23.5314C11.39 23.3935 10.1759 22.9637 10.1759 21.7462C10.1759 20.7388 11.0242 20.0071 12.1956 20.0071C12.6107 20.0071 12.9815 20.0711 13.2982 20.199C13.5558 20.3024 13.6788 20.5945 13.5755 20.8521C13.4721 21.1096 13.1784 21.2327 12.9225 21.1293C12.7879 21.0752 12.5517 21.0112 12.1956 21.0112C11.6903 21.0112 11.18 21.2393 11.18 21.7479C11.18 21.9251 11.18 22.2565 12.1251 22.5929C12.5812 22.7684 13.6181 23.1671 13.6181 24.3468C13.6181 25.3148 12.8568 25.9925 11.7641 25.9925Z" fill="#00EC97"/>
<path id="Vector_3" d="M11.9576 21.013C11.6803 21.013 11.4556 20.7882 11.4556 20.5109V19.6315C11.4556 19.3542 11.6803 19.1294 11.9576 19.1294C12.2349 19.1294 12.4597 19.3542 12.4597 19.6315V20.5109C12.4597 20.7882 12.2349 21.013 11.9576 21.013Z" fill="#00EC97"/>
<path id="Vector_4" d="M11.9576 26.9178C11.6803 26.9178 11.4556 26.693 11.4556 26.4157V25.4903C11.4556 25.2131 11.6803 24.9883 11.9576 24.9883C12.2349 24.9883 12.4597 25.2131 12.4597 25.4903V26.4157C12.4597 26.693 12.2349 26.9178 11.9576 26.9178Z" fill="#00EC97"/>
<path id="Vector_5" d="M13.2488 34.9998C13.0388 34.9998 12.8255 34.9998 12.6122 34.9998H11.9674H11.3226C7.50462 35.0064 4.22152 35.013 2.12467 32.9194C0.693959 31.492 -0.00170898 29.1982 -0.00170898 25.9069C-0.00170898 20.0971 4.59069 13.5949 8.44312 9.16495C8.53828 9.05502 8.6761 8.99268 8.82212 8.99268H15.1127C15.2587 8.99268 15.3965 9.05502 15.4917 9.16495C19.3425 13.5933 23.9316 20.0938 23.9316 25.9069C23.9316 29.1982 23.2359 31.4903 21.8052 32.9194C19.8265 34.8948 16.7862 34.9998 13.2488 34.9998ZM11.9674 33.9941H12.6138C16.2021 34.0039 19.2949 34.0056 21.098 32.2073C22.3302 30.9768 22.9291 28.916 22.9291 25.9053C22.9291 20.2038 17.9593 13.5588 14.8846 9.99352H9.05182C5.97546 13.5605 1.00242 20.2087 1.00242 25.9053C1.00242 28.916 1.60128 30.9768 2.83347 32.2073C4.63499 34.0072 7.73432 34.0006 11.321 33.9941H11.9674Z" fill="#00EC97"/>
<path id="Vector_6" d="M8.47435 6.65643C8.26105 6.65643 8.06252 6.51861 7.99525 6.30367L6.22491 0.651369C6.17733 0.498781 6.20522 0.333068 6.30038 0.205091C6.39555 0.0771142 6.54485 0 6.704 0H11.9675C12.2447 0 12.4695 0.22478 12.4695 0.502063C12.4695 0.779346 12.2447 1.00413 11.9675 1.00413H7.38655L8.9518 6.00506C9.03384 6.26922 8.88781 6.54978 8.62201 6.63346C8.57279 6.64823 8.52193 6.65643 8.47271 6.65643H8.47435Z" fill="#00EC97"/>
<path id="Vector_7" d="M15.4589 6.65643C15.4096 6.65643 15.3588 6.64823 15.3096 6.63346C15.0454 6.54978 14.8977 6.26922 14.9798 6.00506L16.545 1.00413H11.9674C11.6901 1.00413 11.4653 0.779346 11.4653 0.502063C11.4653 0.22478 11.6901 0 11.9674 0H17.2276C17.3867 0 17.5377 0.0754735 17.6312 0.205091C17.7263 0.333068 17.7526 0.500422 17.7067 0.651369L15.938 6.30367C15.8707 6.51861 15.6722 6.65643 15.4589 6.65643Z" fill="#00EC97"/>
<path id="Vector_8" d="M16.0086 9.99371H7.92805C6.72867 9.99371 5.75244 9.02076 5.75244 7.82303C5.75244 7.24385 5.97886 6.69913 6.38904 6.28895C6.79923 5.87876 7.34559 5.65234 7.92805 5.65234H16.0086C17.2064 5.65234 18.1793 6.6253 18.1793 7.82303C18.1793 8.4022 17.9529 8.94692 17.5427 9.35711C17.1325 9.76729 16.5878 9.99371 16.0086 9.99371ZM7.92805 6.65647C7.61467 6.65647 7.31934 6.77788 7.09948 6.99938C6.87798 7.22088 6.75657 7.51293 6.75657 7.82467C6.75657 8.46783 7.28324 8.99287 7.92805 8.99287H16.0086C16.3204 8.99287 16.6124 8.87145 16.8339 8.64995C17.0554 8.42845 17.1768 8.1364 17.1768 7.82467C17.1768 7.1815 16.6534 6.65647 16.0086 6.65647H7.92805Z" fill="#00EC97"/>
<path id="Vector_9" d="M10.8502 3.82946C10.5729 3.82946 10.3481 3.60468 10.3481 3.3274V0.502063C10.3481 0.22478 10.5729 0 10.8502 0C11.1275 0 11.3523 0.22478 11.3523 0.502063V3.32904C11.3523 3.60632 11.1275 3.8311 10.8502 3.8311V3.82946Z" fill="#00EC97"/>
</g>
</svg>
