<svg width="35" height="35" viewBox="0 0 35 35" fill="none" xmlns="http://www.w3.org/2000/svg">
<g id="Group 23">
<path id="Vector" d="M17.5 25.0729C16.304 25.0729 15.1609 24.8011 14.1008 24.2665C13.1676 23.7969 12.3492 23.146 11.6712 22.3321C10.5447 20.9746 9.92554 19.2577 9.92554 17.4985C9.92554 13.3232 13.3232 9.92554 17.4985 9.92554C21.6737 9.92554 25.0714 13.3232 25.0714 17.4985C25.0714 19.2562 24.4568 20.967 23.3408 22.314C22.6659 23.1325 21.8504 23.7878 20.9142 24.2574C19.8632 24.7905 18.6808 25.0714 17.4985 25.0714L17.5 25.0729ZM17.5 10.9509C13.8894 10.9509 10.9509 13.8894 10.9509 17.5C10.9509 19.0206 11.4869 20.505 12.4594 21.6783C13.0453 22.382 13.7535 22.9452 14.5614 23.3514C15.478 23.8135 16.4656 24.0475 17.5 24.0475C18.5343 24.0475 19.5446 23.8044 20.4536 23.3424C21.2615 22.9362 21.9682 22.3699 22.5526 21.6617C23.5175 20.4959 24.0491 19.0176 24.0491 17.4985C24.0491 13.8879 21.1105 10.9494 17.5 10.9494V10.9509Z" fill="#00EC97"/>
<path id="Vector_2" d="M30.2403 18.0119H24.561C24.2786 18.0119 24.0491 17.7823 24.0491 17.4999C24.0491 17.2176 24.2786 16.988 24.561 16.988H30.2403C30.5227 16.988 30.7522 17.2176 30.7522 17.4999C30.7522 17.7823 30.5227 18.0119 30.2403 18.0119Z" fill="#00EC97"/>
<path id="Vector_3" d="M34.4865 20.135H30.2387C29.9563 20.135 29.7268 19.9055 29.7268 19.6231V15.3753C29.7268 15.0929 29.9563 14.8634 30.2387 14.8634H34.4865C34.7689 14.8634 34.9984 15.0929 34.9984 15.3753V19.6231C34.9984 19.9055 34.7689 20.135 34.4865 20.135ZM30.7521 19.1112H33.9746V15.8887H30.7521V19.1112Z" fill="#00EC97"/>
<path id="Vector_4" d="M17.4999 10.9509C17.2176 10.9509 16.988 10.7214 16.988 10.439V4.75971C16.988 4.47733 17.2176 4.2478 17.4999 4.2478C17.7823 4.2478 18.0119 4.47733 18.0119 4.75971V10.439C18.0119 10.7214 17.7823 10.9509 17.4999 10.9509Z" fill="#00EC97"/>
<path id="Vector_5" d="M19.6232 5.27159H15.3754C15.0931 5.27159 14.8635 5.04207 14.8635 4.75969V0.511908C14.8635 0.229528 15.0931 0 15.3754 0H19.6232C19.9056 0 20.1351 0.229528 20.1351 0.511908V4.75969C20.1351 5.04207 19.9056 5.27159 19.6232 5.27159ZM15.8889 4.24778H19.1113V1.02382H15.8889V4.24627V4.24778Z" fill="#00EC97"/>
<path id="Vector_6" d="M10.439 18.0119H4.75971C4.47733 18.0119 4.2478 17.7823 4.2478 17.4999C4.2478 17.2176 4.47733 16.988 4.75971 16.988H10.439C10.7214 16.988 10.9509 17.2176 10.9509 17.4999C10.9509 17.7823 10.7214 18.0119 10.439 18.0119Z" fill="#00EC97"/>
<path id="Vector_7" d="M4.75969 20.135H0.511908C0.229528 20.135 0 19.9055 0 19.6231V15.3753C0 15.0929 0.229528 14.8634 0.511908 14.8634H4.75969C5.04207 14.8634 5.27159 15.0929 5.27159 15.3753V19.6231C5.27159 19.9055 5.04207 20.135 4.75969 20.135ZM1.02382 19.1112H4.24627V15.8887H1.02382V19.1112Z" fill="#00EC97"/>
<path id="Vector_8" d="M17.4999 30.7522C17.2176 30.7522 16.988 30.5227 16.988 30.2403V24.561C16.988 24.2786 17.2176 24.0491 17.4999 24.0491C17.7823 24.0491 18.0119 24.2786 18.0119 24.561V30.2403C18.0119 30.5227 17.7823 30.7522 17.4999 30.7522Z" fill="#00EC97"/>
<path id="Vector_9" d="M19.6232 35H15.3754C15.0931 35 14.8635 34.7705 14.8635 34.4881V30.2403C14.8635 29.9579 15.0931 29.7284 15.3754 29.7284H19.6232C19.9056 29.7284 20.1351 29.9579 20.1351 30.2403V34.4881C20.1351 34.7705 19.9056 35 19.6232 35ZM15.8889 33.9747H19.1113V30.7522H15.8889V33.9747Z" fill="#00EC97"/>
<path id="Vector_10" d="M22.4923 13.0182C22.3609 13.0182 22.2295 12.9683 22.1299 12.8687C21.929 12.6678 21.929 12.3447 22.1299 12.1438L27.5736 6.70162C27.7729 6.50229 28.0976 6.50229 28.2984 6.70162C28.4993 6.90095 28.4978 7.22561 28.2984 7.42644L22.8547 12.8687C22.755 12.9683 22.6237 13.0182 22.4923 13.0182Z" fill="#00EC97"/>
<path id="Vector_11" d="M29.3509 8.16185C28.6789 8.16185 28.0492 7.90061 27.5736 7.42495C27.0994 6.95079 26.8367 6.31959 26.8367 5.64762C26.8367 4.97564 27.0979 4.34595 27.5736 3.87179C28.0477 3.39764 28.6789 3.13489 29.3509 3.13489C30.0229 3.13489 30.6526 3.39613 31.1282 3.87179C31.6024 4.34595 31.8651 4.97715 31.8651 5.64762C31.8651 6.31808 31.6039 6.94928 31.1282 7.42495C30.6541 7.90061 30.0229 8.16185 29.3509 8.16185ZM29.3509 4.16021C28.9538 4.16021 28.5793 4.31575 28.2984 4.59662C28.0175 4.87749 27.862 5.25198 27.862 5.64913C27.862 6.04627 28.0175 6.42076 28.2984 6.70163C28.8601 7.26488 29.8402 7.26488 30.4034 6.70163C30.6843 6.42076 30.8398 6.04627 30.8398 5.64913C30.8398 5.25198 30.6843 4.87749 30.4034 4.59662C30.1225 4.31575 29.7481 4.16021 29.3509 4.16021Z" fill="#00EC97"/>
<path id="Vector_12" d="M12.5064 13.0182C12.375 13.0182 12.2436 12.9683 12.144 12.8687L6.70174 7.42644C6.50241 7.22712 6.50241 6.90246 6.70174 6.70162C6.90107 6.50229 7.22573 6.50229 7.42657 6.70162L12.8688 12.1438C13.0681 12.3432 13.0681 12.6678 12.8688 12.8687C12.7691 12.9683 12.6378 13.0182 12.5064 13.0182Z" fill="#00EC97"/>
<path id="Vector_13" d="M5.64907 8.16029C5.00579 8.16029 4.3625 7.91566 3.87174 7.42489C2.89171 6.44487 2.89171 4.85176 3.87174 3.87174C4.85025 2.89171 6.44487 2.89171 7.42489 3.87174C8.40491 4.85176 8.40491 6.44487 7.42489 7.42489C6.93563 7.91415 6.29235 8.16029 5.64756 8.16029H5.64907ZM5.64907 4.16167C5.26854 4.16167 4.88649 4.30663 4.59656 4.59656C4.31569 4.87743 4.16016 5.25192 4.16016 5.64907C4.16016 6.04621 4.31569 6.42071 4.59656 6.70158C5.17642 7.28295 6.12172 7.28144 6.70158 6.70158C7.28144 6.12172 7.28144 5.17642 6.70158 4.59656C6.41165 4.30663 6.0296 4.16167 5.64907 4.16167Z" fill="#00EC97"/>
<path id="Vector_14" d="M7.06415 28.4479C6.93278 28.4479 6.8014 28.398 6.70174 28.2984C6.50241 28.099 6.50241 27.7744 6.70174 27.5735L12.144 22.1313C12.3433 21.932 12.668 21.932 12.8688 22.1313C13.0681 22.3306 13.0681 22.6553 12.8688 22.8561L7.42657 28.2984C7.3269 28.398 7.19553 28.4479 7.06415 28.4479Z" fill="#00EC97"/>
<path id="Vector_15" d="M5.64907 31.8621C5.00579 31.8621 4.3625 31.6174 3.87174 31.1267C2.89171 30.1466 2.89171 28.552 3.87174 27.5735C4.85176 26.5935 6.44487 26.5935 7.42489 27.5735C8.4034 28.5535 8.4034 30.1466 7.42489 31.1267C6.93563 31.6159 6.29084 31.8621 5.64756 31.8621H5.64907ZM5.64907 27.8619C5.26854 27.8619 4.88649 28.0069 4.59656 28.2968C4.0167 28.8767 4.0167 29.822 4.59656 30.4018C5.17642 30.9832 6.12172 30.9817 6.70158 30.4018C7.28144 29.822 7.28144 28.8767 6.70158 28.2968C6.41165 28.0069 6.0296 27.8619 5.64907 27.8619Z" fill="#00EC97"/>
<path id="Vector_16" d="M27.936 28.4479C27.8047 28.4479 27.6748 28.398 27.5736 28.2984L22.1299 22.8561C21.929 22.6568 21.929 22.3321 22.1299 22.1313C22.3292 21.932 22.6539 21.932 22.8547 22.1313L28.2984 27.5735C28.4978 27.7729 28.4978 28.0975 28.2984 28.2984C28.1988 28.398 28.0674 28.4479 27.936 28.4479Z" fill="#00EC97"/>
<path id="Vector_17" d="M29.351 31.8621C28.7077 31.8621 28.0644 31.6174 27.5736 31.1267C26.5936 30.1466 26.5936 28.552 27.5736 27.5735C28.5537 26.5935 30.1468 26.5935 31.1268 27.5735C32.1068 28.5535 32.1068 30.1482 31.1268 31.1267C30.6375 31.6159 29.9927 31.8621 29.3495 31.8621H29.351ZM29.351 27.8619C28.9704 27.8619 28.5884 28.0069 28.2985 28.2968C27.7186 28.8767 27.7186 29.822 28.2985 30.4018C28.8602 30.9636 29.8417 30.9636 30.4035 30.4018C30.9833 29.822 30.9833 28.8767 30.4035 28.2968C30.1135 28.0069 29.7315 27.8619 29.351 27.8619Z" fill="#00EC97"/>
<path id="Vector_18" d="M17.4999 25.073C13.3246 25.073 9.927 21.6753 9.927 17.5C9.927 13.3247 13.3246 9.92712 17.4999 9.92712C21.6752 9.92712 25.0728 13.3247 25.0728 17.5C25.0728 21.6753 21.6752 25.073 17.4999 25.073ZM17.4999 10.9509C13.8894 10.9509 10.9508 13.8895 10.9508 17.5C10.9508 21.1106 13.8894 24.0491 17.4999 24.0491C21.1105 24.0491 24.049 21.1106 24.049 17.5C24.049 13.8895 21.1105 10.9509 17.4999 10.9509Z" fill="#00EC97"/>
</g>
</svg>
