<svg width="32" height="35" viewBox="0 0 32 35" fill="none" xmlns="http://www.w3.org/2000/svg">
<g id="Layer_1">
<g clip-path="url(#clip0_31_360)">
<path id="Vector" d="M15.8484 28.8518C14.0542 28.8518 12.3415 28.4464 10.7536 27.644C9.35504 26.9412 8.12903 25.9649 7.11204 24.7445C5.42593 22.7105 4.49731 20.1379 4.49731 17.4993C4.49731 11.2402 9.58929 6.14685 15.8498 6.14685C22.1102 6.14685 27.2022 11.2402 27.2022 17.4993C27.2022 20.1337 26.2806 22.6965 24.6085 24.7164C23.5986 25.9453 22.374 26.9258 20.9726 27.63C19.3973 28.4281 17.6256 28.8504 15.8512 28.8504L15.8484 28.8518ZM15.8484 7.14561C10.1392 7.14561 5.49467 11.7901 5.49467 17.4993C5.49467 19.905 6.34193 22.2518 7.87934 24.1063C8.80796 25.22 9.92595 26.1108 11.2025 26.7518C12.6501 27.4827 14.2128 27.853 15.8484 27.853C17.484 27.853 19.0817 27.4672 20.5195 26.7392C21.7988 26.0968 22.914 25.2032 23.837 24.081C25.3632 22.2392 26.2021 19.9022 26.2021 17.4993C26.2021 11.7901 21.5576 7.14561 15.8484 7.14561Z" fill="#00EC97"/>
<path id="Vector_2" d="M15.8483 33.3476C15.5719 33.3476 15.3489 33.1246 15.3489 32.8482C15.3489 32.5719 15.5719 32.3489 15.8483 32.3489C19.8152 32.3489 23.5437 30.8044 26.3492 27.9989C29.1533 25.1948 30.6978 21.4649 30.6978 17.4979C30.6978 13.531 29.1533 9.80246 26.3492 6.99696C26.1543 6.80198 26.1543 6.48636 26.3492 6.29138C26.5442 6.0964 26.8598 6.0964 27.0548 6.29138C30.0483 9.28485 31.6965 13.2644 31.6965 17.4979C31.6965 21.7314 30.0483 25.711 27.0548 28.7031C24.0614 31.6966 20.0818 33.3448 15.8497 33.3448L15.8483 33.3476Z" fill="#00EC97"/>
<path id="Vector_3" d="M15.8483 33.3475C15.7248 33.3475 15.6014 33.3026 15.5046 33.21C15.3054 33.0207 15.297 32.7037 15.4864 32.5045L17.056 30.852C17.2468 30.6528 17.5624 30.6444 17.7616 30.8338C17.9608 31.0232 17.9692 31.3388 17.7799 31.5394L16.2102 33.1918C16.112 33.2942 15.9801 33.3475 15.8483 33.3475Z" fill="#00EC97"/>
<path id="Vector_4" d="M17.4165 35C17.2846 35 17.1528 34.9481 17.0546 34.8443L15.4849 33.1918C15.2955 32.9912 15.304 32.6756 15.5031 32.4863C15.7023 32.2969 16.018 32.3053 16.2087 32.5045L17.7784 34.1569C17.9678 34.3575 17.9608 34.6731 17.7602 34.8625C17.6634 34.9537 17.5399 35 17.4165 35Z" fill="#00EC97"/>
<path id="Vector_5" d="M14.2785 4.30229C14.155 4.30229 14.0316 4.256 13.9348 4.16482C13.7342 3.97545 13.7272 3.65983 13.9166 3.45924L15.4862 1.8068C15.6756 1.60761 15.9926 1.6006 16.1918 1.78856C16.391 1.97794 16.3994 2.29355 16.2101 2.49415L14.6404 4.14659C14.5422 4.24899 14.4103 4.30229 14.2785 4.30229Z" fill="#00EC97"/>
<path id="Vector_6" d="M15.8482 2.64976C15.7163 2.64976 15.5844 2.59786 15.4862 2.49405L13.9166 0.841615C13.7272 0.641021 13.7342 0.325403 13.9348 0.136032C14.134 -0.0533395 14.4496 -0.044923 14.6404 0.154267L16.2101 1.80671C16.3994 2.0073 16.391 2.32292 16.1918 2.51229C16.095 2.60347 15.9716 2.64976 15.8482 2.64976Z" fill="#00EC97"/>
<path id="Vector_7" d="M4.99379 28.8518C4.86614 28.8518 4.73849 28.8027 4.6417 28.7059C1.64823 25.7124 0 21.7328 0 17.4993C0 13.2658 1.64823 9.28623 4.6417 6.29276C7.63516 3.3007 11.6148 1.65247 15.8483 1.65247C16.1232 1.65247 16.3476 1.8755 16.3476 2.15184C16.3476 2.42819 16.1246 2.65122 15.8483 2.65122C11.8813 2.65122 8.15278 4.19565 5.34728 7.00115C2.54178 9.80384 0.997355 13.5338 0.997355 17.4993C0.997355 21.4649 2.54178 25.1948 5.34728 28.0003C5.54226 28.1953 5.54226 28.5109 5.34728 28.7059C5.24909 28.8027 5.12144 28.8518 4.99379 28.8518Z" fill="#00EC97"/>
<path id="Vector_8" d="M15.8484 23.9575C13.1467 23.9575 10.95 21.7594 10.95 19.0591V16.3196C10.95 16.0432 11.173 15.8202 11.4493 15.8202H20.2488C20.5237 15.8202 20.7482 16.0432 20.7482 16.3196V19.0591C20.7482 21.7608 18.55 23.9575 15.8498 23.9575H15.8484ZM11.9473 16.8189V19.0591C11.9473 21.2096 13.6979 22.9602 15.8484 22.9602C17.9988 22.9602 19.7494 21.2096 19.7494 19.0591V16.8189H11.9473Z" fill="#00EC97"/>
<path id="Vector_9" d="M18.6132 16.819H13.0821C12.8072 16.819 12.5828 16.596 12.5828 16.3196V14.3081C12.5828 12.507 14.0472 11.0425 15.847 11.0425C16.7181 11.0425 17.5373 11.3819 18.1545 11.9992C18.7717 12.6192 19.1112 13.4384 19.1112 14.3095V16.321C19.1112 16.596 18.8881 16.8204 18.6118 16.8204L18.6132 16.819ZM13.5815 15.8202H18.1138V14.3081C18.1138 13.7035 17.8781 13.134 17.4489 12.7033C17.0211 12.2755 16.4529 12.0398 15.847 12.0398C14.5971 12.0398 13.5801 13.0568 13.5801 14.3081V15.8202H13.5815Z" fill="#00EC97"/>
</g>
</g>
<defs>
<clipPath id="clip0_31_360">
<rect width="31.6951" height="35" rx="15.8476" fill="white"/>
</clipPath>
</defs>
</svg>
