<svg width="29" height="35" viewBox="0 0 29 35" fill="none" xmlns="http://www.w3.org/2000/svg">
<g id="Group 21">
<path id="Vector" d="M14.3515 35C13.5857 35 12.8199 34.7716 12.1663 34.3135C-1.2799 24.8931 0.0260233 6.3846 0.0410652 6.19862C0.0561073 6.01675 0.166871 5.85539 0.333701 5.77881L11.5851 0.607101C13.3437 -0.201065 15.3593 -0.201065 17.1178 0.607101L28.3693 5.78018C28.5361 5.85676 28.6482 6.01675 28.6619 6.19999C28.6769 6.38596 29.9829 24.8945 16.5367 34.3149C15.883 34.773 15.1173 35.0013 14.3515 35.0013V35ZM1.03247 6.57057C0.928543 8.93763 0.691973 25.0394 12.7461 33.4862C13.706 34.159 14.9969 34.159 15.9569 33.4862C28.0124 25.0408 27.7758 8.93763 27.6705 6.57057L16.6967 1.52466C15.2075 0.839568 13.4982 0.839568 12.009 1.52466L1.03247 6.57057Z" fill="#00EC97"/>
<path id="Vector_2" d="M14.0589 18.6727C13.8879 18.6727 13.7293 18.5865 13.6363 18.4429L11.2351 14.7645C11.0819 14.5307 11.1475 14.2175 11.3814 14.0643C11.6152 13.9126 11.9284 13.9782 12.0815 14.2107L14.037 17.2054L17.085 12.0159C17.2259 11.7752 17.5363 11.6945 17.777 11.8354C18.0176 11.9762 18.0983 12.2867 17.9575 12.5273L14.4964 18.4211C14.4076 18.5715 14.2476 18.6658 14.0725 18.6713H14.0602L14.0589 18.6727Z" fill="#00EC97"/>
<path id="Vector_3" d="M14.3514 23.0758C9.9837 23.0758 6.42969 19.5217 6.42969 15.1541C6.42969 10.7864 9.9837 7.23242 14.3514 7.23242C18.719 7.23242 22.273 10.7864 22.273 15.1541C22.273 19.5217 18.719 23.0758 14.3514 23.0758ZM14.3514 8.24297C10.5403 8.24297 7.44024 11.343 7.44024 15.1541C7.44024 18.9652 10.5403 22.0652 14.3514 22.0652C18.1624 22.0652 21.2625 18.9652 21.2625 15.1541C21.2625 11.343 18.1624 8.24297 14.3514 8.24297Z" fill="#00EC97"/>
</g>
</svg>
