<svg width="95" height="55" viewBox="0 0 95 55" fill="none" xmlns="http://www.w3.org/2000/svg">
<g id="templar">
<path id="Vector" d="M94.875 14.8785C94.875 29.4258 84.2558 52.9609 71.1562 52.9609C58.0567 52.9609 47.4375 29.4258 47.4375 14.8785C47.4375 0.331097 58.0567 8.26532 71.1562 8.26532C84.2558 8.26532 94.875 0.331097 94.875 14.8785Z" fill="url(#paint0_linear_20_240)"/>
<path id="Vector_2" d="M47.4375 14.8785C47.4375 29.4258 36.8183 52.9609 23.7188 52.9609C10.6193 52.9609 0 29.4258 0 14.8785C0 0.331097 10.6193 8.26532 23.7188 8.26532C36.8183 8.26532 47.4375 0.331097 47.4375 14.8785Z" fill="url(#paint1_linear_20_240)"/>
<g id="Group" filter="url(#filter0_d_20_240)">
<path id="Vector_3" d="M71.1562 12.7728C71.1562 27.3202 60.5371 50.8551 47.4375 50.8551C34.3379 50.8551 23.7188 27.3202 23.7188 12.7728C23.7188 -1.77462 34.3379 6.15961 47.4375 6.15961C60.5371 6.15961 71.1562 -1.77462 71.1562 12.7728Z" fill="url(#paint2_linear_20_240)"/>
</g>
</g>
<defs>
<filter id="filter0_d_20_240" x="19.7188" y="0" width="55.4375" height="54.8552" filterUnits="userSpaceOnUse" color-interpolation-filters="sRGB">
<feFlood flood-opacity="0" result="BackgroundImageFix"/>
<feColorMatrix in="SourceAlpha" type="matrix" values="0 0 0 0 0 0 0 0 0 0 0 0 0 0 0 0 0 0 127 0" result="hardAlpha"/>
<feOffset/>
<feGaussianBlur stdDeviation="2"/>
<feComposite in2="hardAlpha" operator="out"/>
<feColorMatrix type="matrix" values="0 0 0 0 0.0745098 0 0 0 0 0.0901961 0 0 0 0 0.196078 0 0 0 0.25 0"/>
<feBlend mode="normal" in2="BackgroundImageFix" result="effect1_dropShadow_20_240"/>
<feBlend mode="normal" in="SourceGraphic" in2="effect1_dropShadow_20_240" result="shape"/>
</filter>
<linearGradient id="paint0_linear_20_240" x1="71.1562" y1="6.10571" x2="71.1562" y2="52.9609" gradientUnits="userSpaceOnUse">
<stop stop-color="#963CDC"/>
<stop offset="1" stop-color="#1499B6"/>
</linearGradient>
<linearGradient id="paint1_linear_20_240" x1="23.7188" y1="6.10571" x2="23.7188" y2="52.9609" gradientUnits="userSpaceOnUse">
<stop stop-color="#1499B6"/>
<stop offset="1" stop-color="#963CDC"/>
</linearGradient>
<linearGradient id="paint2_linear_20_240" x1="71.1562" y1="27.4276" x2="23.7188" y2="27.4276" gradientUnits="userSpaceOnUse">
<stop stop-color="#355EC6"/>
<stop offset="1" stop-color="#963CDC"/>
</linearGradient>
</defs>
</svg>
