<svg width="694" height="207" viewBox="0 0 694 207" fill="none" xmlns="http://www.w3.org/2000/svg">
<path d="M678.12 134.575L662.29 115.961L674.62 103.154C675.416 102.358 675.734 101.722 675.734 101.006C675.734 99.8922 674.063 99.0172 671.12 99.0172C669.847 99.0172 669.37 98.2217 669.37 97.5058C669.37 96.8694 669.768 96.0739 670.722 96.0739H689.337C690.371 96.0739 690.848 96.7103 690.848 97.4263C690.848 98.0626 690.371 98.7786 689.655 98.9377C685.677 99.7332 683.609 100.529 681.382 102.676L670.007 113.574L682.734 127.654C686.871 132.189 688.303 134.575 692.598 136.484C692.996 136.643 693.235 136.802 693.235 137.2C693.235 138.075 690.769 138.473 688.621 138.473C683.132 138.473 680.348 137.2 678.12 134.575ZM660.699 90.5851V118.109C660.699 122.643 660.859 126.223 661.097 128.132C661.654 132.189 661.893 132.984 667.143 133.859C668.018 134.018 668.416 134.734 668.416 135.45C668.416 136.087 668.097 136.723 667.381 136.723H645.983C645.267 136.723 644.949 136.087 644.949 135.45C644.949 134.734 645.347 134.018 646.222 133.859C651.79 132.984 652.586 132.109 652.904 128.132C653.063 126.223 653.301 122.643 653.301 118.109V90.5851C653.301 82.0735 653.301 77.062 649.324 77.062H645.744C644.869 77.062 644.472 76.4256 644.472 75.7892C644.472 75.1529 644.79 74.5165 645.585 74.2778C648.37 73.4824 656.483 71.4937 658.393 71.4937C659.904 71.4937 661.018 72.4482 661.018 74.8347C661.018 77.2211 660.699 82.0735 660.699 90.5851Z" fill="#000000"/>
<path d="M626.723 107.131C630.302 97.5853 634.359 95.2784 638.018 95.2784C641.439 95.2784 644.064 97.1876 644.064 101.085C644.064 104.983 640.087 106.017 638.973 106.017C638.496 104.824 637.461 103.313 635.234 103.313C631.734 103.313 626.563 108.722 626.563 116.2C626.563 124.393 626.723 126.223 626.961 128.132C627.518 132.189 630.302 133.064 635.552 133.859C636.427 134.018 636.825 134.734 636.825 135.45C636.825 136.087 636.507 136.723 635.473 136.723H612.483C611.529 136.723 611.211 136.087 611.211 135.45C611.211 134.734 611.608 134.018 612.483 133.859C618.052 133.064 618.847 132.109 619.165 128.132C619.325 126.223 619.563 122.643 619.563 118.109V113.415C619.563 104.904 619.165 101.006 613.518 101.006H612.245C611.131 101.006 610.733 100.29 610.733 99.574C610.733 98.9376 611.052 98.2217 611.847 97.9831C614.631 97.1876 621.234 96.0739 623.143 96.0739C625.688 96.0739 626.723 101.404 626.723 107.131Z" fill="#000000"/>
<path d="M585.062 137.518C573.925 137.518 565.732 130.439 565.732 118.029C565.732 102.358 575.755 95.2784 586.892 95.2784C597.631 95.2784 605.745 102.756 605.745 115.165C605.745 130.836 596.199 137.518 585.062 137.518ZM586.414 133.143C593.494 133.143 597.392 127.018 597.392 117.552C597.392 107.211 593.176 99.7331 585.46 99.7331C577.823 99.7331 574.084 106.097 574.084 115.563C574.084 125.904 578.698 133.143 586.414 133.143Z" fill="#000000"/>
<path d="M504.875 96.074H522.534C523.489 96.074 523.966 96.7103 523.966 97.4263C523.966 98.1422 523.489 98.8581 522.693 98.9377C519.591 99.2559 517.841 100.131 517.841 101.881C517.841 102.199 517.921 102.517 518 102.836L524.284 125.666L533.591 99.0172C533.91 97.9831 534.626 97.5058 535.66 97.5058C536.535 97.5058 537.171 98.0627 537.569 99.0172L547.831 124.87L553.638 104.347C553.797 103.79 553.876 103.313 553.876 102.676C553.876 100.688 551.808 99.3354 548.546 98.9377C547.671 98.8581 547.194 98.1422 547.194 97.4263C547.194 96.7899 547.592 96.074 548.546 96.074H565.092C566.127 96.074 566.604 96.7103 566.604 97.4263C566.604 98.0627 566.127 98.7786 565.411 98.9377C561.831 99.7332 560.399 101.165 558.729 106.097L548.387 135.689C547.99 136.882 547.274 137.518 546.478 137.518C545.762 137.518 544.967 136.962 544.49 135.689L534.148 110.631L524.125 135.689C523.648 136.882 522.932 137.518 522.137 137.518C521.262 137.518 520.625 136.882 520.227 135.689L513.864 115.722C509.488 101.961 508.932 100.131 504.636 99.1763C503.841 99.0172 503.363 98.2218 503.363 97.5058C503.363 96.7899 503.841 96.074 504.875 96.074Z" fill="#000000"/>
<path d="M485.597 100.21V125.586C485.597 129.882 487.984 131.552 491.563 131.552C494.904 131.552 496.893 130.359 498.007 130.359C498.484 130.359 498.802 130.518 498.802 131.075C498.802 132.825 492.597 137.518 486.552 137.518C481.54 137.518 477.563 134.496 477.563 128.052C477.563 121.052 478.04 106.495 478.04 99.9718H473.347C472.233 99.9718 471.676 99.574 471.676 98.7786C471.676 97.4263 474.222 96.5512 478.199 92.0965C482.574 87.2441 483.131 85.6532 484.563 85.6532C485.199 85.6532 485.597 86.1305 485.597 87.2441V95.9944C488.779 95.8353 493.711 95.4376 495.541 95.4376C497.052 95.4376 497.848 96.5512 497.848 97.6649C497.848 98.699 497.132 100.21 495.302 100.21H485.597Z" fill="#000000"/>
<path d="M451.36 99.3354C445.632 99.3354 441.257 104.426 440.382 111.108L455.178 110.233C457.405 110.074 458.439 108.961 458.439 107.688C458.439 101.563 455.257 99.3354 451.36 99.3354ZM466.871 126.302C466.871 131.791 459.474 137.518 451.201 137.518C441.337 137.518 432.427 131.314 432.427 118.109C432.427 105.381 440.302 95.2784 452.712 95.2784C458.36 95.2784 466.394 98.6195 466.394 110.472C466.394 112.938 464.246 114.131 461.94 114.211L440.064 114.847C440.064 126.859 446.03 130.995 453.03 130.995C462.655 130.995 464.008 124.95 465.837 124.95C466.633 124.95 466.871 125.507 466.871 126.302Z" fill="#000000"/>
<path d="M420.824 137.121L381.448 90.1874L381.845 112.859C382.004 122.086 382.005 125.586 382.243 127.495C382.8 131.552 384.152 133.064 389.402 133.859C390.277 134.018 390.675 134.734 390.675 135.45C390.675 136.087 390.357 136.723 389.641 136.723H369.356C368.64 136.723 368.322 136.087 368.322 135.45C368.322 134.734 368.72 134.018 369.595 133.859C375.163 133.064 375.959 132.03 376.277 128.052C376.436 126.143 376.675 122.722 376.675 113.336V101.722C376.675 92.4148 376.436 87.7214 376.277 85.8123L370.947 80.0848C370.47 79.528 370.231 79.0507 370.231 78.653C370.231 78.0961 370.629 77.7779 371.345 77.7779H382.323L418.517 121.211V101.722C418.517 92.4148 418.199 88.3578 418.04 86.4487C417.722 82.4713 417.324 81.5167 411.755 80.7212C410.88 80.5621 410.483 79.7666 410.483 79.0507C410.483 78.4143 410.801 77.7779 411.517 77.7779H430.608C431.324 77.7779 431.642 78.4143 431.642 79.0507C431.642 79.7666 431.245 80.5621 430.37 80.7212C425.119 81.5167 425.119 82.3917 424.563 86.4487C424.324 88.3578 424.006 92.4147 424.006 101.563V136.087C424.006 137.439 423.369 137.996 422.574 137.996C421.938 137.996 421.222 137.598 420.824 137.121Z" fill="#000000"/>
<path d="M347.812 131.632C347.812 128.45 350.278 125.904 353.38 125.904C356.562 125.904 359.108 128.45 359.108 131.632C359.108 134.734 356.562 137.2 353.38 137.2C350.278 137.2 347.812 134.734 347.812 131.632Z" fill="#000000"/>
<path d="M306.57 109.677C306.57 100.29 314.127 95.2785 323.434 95.2785C328.764 95.2785 333.218 97.2672 335.525 99.4945C339.821 96.3921 342.764 95.1989 343.957 95.1989C346.264 95.1989 346.344 98.5399 346.344 100.131C346.344 101.165 345.946 101.881 344.435 101.96L337.355 102.438C339.025 104.188 339.9 107.052 339.9 109.677C339.9 118.347 332.9 122.802 323.434 122.802C321.525 122.802 320.332 122.802 318.661 122.325C316.354 124.711 315.081 125.745 315.081 127.893C315.081 129.564 315.877 130.677 319.138 130.995L332.662 132.268C338.787 132.825 343.957 136.007 343.957 142.291C343.957 152.951 333.537 156.928 321.764 156.928C312.456 156.928 303.865 154.701 303.865 146.428C303.865 141.416 306.888 138.632 313.013 137.677C310.15 136.723 308.479 134.177 308.479 131.075C308.479 127.734 311.343 124.473 315.32 121.211C309.752 119.302 306.57 115.086 306.57 109.677ZM330.434 139.428L320.809 138.632C315.638 138.234 312.218 139.984 312.218 145.155C312.218 149.769 316.036 152.792 323.832 152.792C330.832 152.792 337.514 150.723 337.514 145.314C337.514 141.416 334.889 139.746 330.434 139.428ZM314.604 109.358C314.604 115.404 317.547 118.984 323.195 118.984C328.366 118.984 331.707 115.484 331.707 109.438C331.707 103.233 328.605 99.0968 323.195 99.0968C318.104 99.0968 314.604 103.154 314.604 109.358Z" fill="#000000"/>
<path d="M293.879 99.415C293.879 101.801 293.561 106.654 293.561 115.165V118.109C293.561 122.643 293.72 126.223 293.958 128.132C294.515 132.189 294.754 133.064 300.004 133.859C300.879 134.018 301.277 134.734 301.277 135.45C301.277 136.087 300.958 136.723 300.243 136.723H279.003C278.287 136.723 277.969 136.087 277.969 135.45C277.969 134.734 278.367 134.018 279.242 133.859C284.81 133.064 285.606 132.109 285.924 128.132C286.083 126.223 286.322 122.643 286.322 118.109V115.165C286.322 106.654 286.163 101.006 280.515 101.006H278.844C278.128 101.006 277.73 100.29 277.73 99.5741C277.73 98.9377 278.049 98.2217 278.844 97.9831C281.628 97.1876 289.344 96.0739 291.254 96.0739C292.765 96.0739 293.879 97.0285 293.879 99.415ZM283.378 81.3576C283.378 78.4143 285.844 75.9483 288.788 75.9483C291.731 75.9483 294.197 78.4143 294.197 81.3576C294.197 84.3009 291.731 86.7668 288.788 86.7668C285.844 86.7668 283.378 84.3009 283.378 81.3576Z" fill="#000000"/>
<path d="M239.048 120.813C241.912 131.393 247.003 133.621 252.332 133.621C257.264 133.621 264.185 131.234 264.185 123.041C264.185 111.745 237.616 109.677 237.616 92.017C237.616 80.5621 246.764 76.6642 256.071 76.6642C260.765 76.6642 265.458 77.6984 269.038 79.2098C269.594 79.4484 269.833 79.8462 269.833 80.7212V91.3806C269.833 92.2556 269.197 92.7329 268.481 92.7329C267.765 92.7329 267.049 92.2556 266.89 91.2215C265.856 83.2667 260.446 80.9598 255.117 80.9598C250.742 80.9598 245.889 83.3463 245.889 90.0283C245.889 103.392 271.822 104.108 271.822 120.575C271.822 133.382 261.878 137.518 251.617 137.518C246.605 137.518 241.514 136.962 237.457 135.132C236.741 134.814 236.502 134.098 236.502 132.905V121.211C236.502 120.177 237.059 119.7 237.696 119.7C238.252 119.7 238.889 120.097 239.048 120.813Z" fill="#000000"/>
<path fill-rule="evenodd" clip-rule="evenodd" d="M98.1405 54.7306C100.405 43.2653 113.17 31.7139 130.36 36.1612C137.578 38.0284 147.299 46.352 144.523 62.1655C143.861 65.9362 143.906 68.6919 144.426 70.8305C144.932 72.9137 145.929 74.5817 147.477 76.1376C148.221 76.8861 148.5 77.9803 148.204 78.9938C147.908 80.0074 147.084 80.7797 146.054 81.0099C143.141 81.6606 139.188 80.9813 135.809 79.5469C132.42 78.1084 128.782 75.5581 127.245 71.6971C126.653 70.2102 127.378 68.5247 128.865 67.9327C130.352 67.3406 132.038 68.066 132.63 69.553C133.346 71.3514 135.339 73.051 138.074 74.2117C138.604 74.4369 139.132 74.6287 139.647 74.7893C139.301 73.9733 139.015 73.1119 138.794 72.1989C138.023 69.0265 138.068 65.41 138.814 61.1633C141.006 48.68 133.56 42.9758 128.909 41.7725C115.243 38.2371 105.507 47.3491 103.827 55.8539C102.789 61.1082 103.309 64.8847 104.712 67.8894C106.14 70.9477 108.631 73.5287 112.12 76.1196C114.933 78.2091 118.198 80.1691 121.86 82.3676C122.791 82.927 123.748 83.5017 124.731 84.098C129.5 86.994 134.697 90.309 139.778 94.5748C147.499 101.057 151.976 107.453 153.929 113.662C155.898 119.922 155.215 125.728 153.097 130.805C149.604 139.175 142.219 145.572 136.352 149.423C138.313 149.99 140.281 150.49 142.249 150.915C153.02 153.243 163.631 153.31 173.147 150.113C182.605 146.936 191.191 140.467 197.893 129.33C198.718 127.958 200.499 127.516 201.87 128.341C203.242 129.166 203.684 130.947 202.859 132.318C195.485 144.572 185.823 151.969 174.992 155.608C164.219 159.227 152.498 159.06 141.025 156.58C137.104 155.733 133.193 154.611 129.335 153.266C117.107 158.64 100.755 159.767 87.9615 156.663C80.0074 154.733 70.7783 150.235 61.2515 144.011C53.2082 138.756 46.79 135.244 41.7637 132.937C36.1298 135.737 31.2799 137.477 27.8291 138.277C24.4064 139.071 20.8055 139.181 18.1393 137.899C16.7154 137.215 15.4442 136.066 14.841 134.356C14.2525 132.688 14.4531 130.918 15.0743 129.253C16.2032 126.227 18.7791 124.586 21.3965 123.782C23.9969 122.983 26.9899 122.88 29.7842 123.136C32.5495 123.388 36.4015 124.353 41.5678 126.52C44.5744 124.92 47.8056 123.003 51.1611 120.743C47.7022 115.624 45.4072 110.549 43.9965 106.476C43.2796 104.406 42.7825 102.569 42.4773 101.091C42.2002 99.7483 42.0059 98.3604 42.1295 97.3671C42.2916 96.0638 42.9893 94.9058 44.1406 94.1597C45.1978 93.4746 46.4245 93.2689 47.5545 93.2794C49.7903 93.3002 52.6065 94.1746 55.926 95.8427C59.9348 97.8572 65.0611 101.227 71.401 106.438C72.5088 105.693 73.6065 104.966 74.6866 104.262C81.0216 100.135 87.1179 96.5802 91.1116 95.4054C101.117 92.462 109.084 92.3003 115.439 93.453C121.794 94.6055 126.366 97.0421 129.585 99.0329C141.089 106.148 143.134 119.815 138.03 128.024C133.924 134.626 127.24 139.604 118.502 142.443C121.937 144.128 125.463 145.661 129.039 146.997C129.5 146.763 129.951 146.521 130.393 146.273C136.06 143.083 144.342 136.733 147.748 128.573C149.407 124.597 149.91 120.201 148.4 115.4C146.874 110.548 143.208 105.023 136.051 99.0137C131.317 95.0387 126.424 91.9068 121.723 89.0524C120.813 88.5001 119.904 87.9545 119.001 87.4129C115.311 85.1983 111.729 83.049 108.664 80.7727C104.809 77.9094 101.465 74.6359 99.4602 70.3419C97.4299 65.9944 96.9177 60.921 98.1405 54.7306ZM121.179 150.067C117.292 148.375 113.493 146.482 109.831 144.446C103.778 145.338 97.0255 145.382 89.6912 144.46C73.2107 142.39 61.9939 134.257 54.6398 125.387C52.3903 126.91 50.1837 128.293 48.0461 129.541C52.6874 131.901 58.114 135.038 64.4215 139.159C73.6643 145.197 82.2662 149.317 89.3279 151.03C99.0861 153.398 111.128 153.019 121.179 150.067ZM59.3773 122.019C65.9723 129.845 75.8775 136.883 90.4136 138.709C94.2943 139.197 97.9446 139.394 101.359 139.332C93.8756 134.446 87.2286 129.085 81.9161 123.839C77.94 119.913 74.3144 116.56 71.0264 113.709C67.0717 116.442 63.0762 119.312 59.3773 122.019ZM66.4143 109.855C60.9481 105.468 56.6119 102.674 53.3235 101.022C50.7765 99.7416 49.0422 99.2414 48.0036 99.1116C48.0407 99.3398 48.0894 99.6083 48.1537 99.9195C48.4023 101.124 48.8286 102.717 49.4734 104.579C50.7329 108.216 52.7929 112.782 55.8904 117.389C59.2222 114.949 62.8128 112.364 66.4143 109.855ZM75.9852 110.346C79.0701 113.065 82.4017 116.173 85.9885 119.715C92.519 126.163 101.183 132.796 110.915 138.4C121.614 136.404 129.102 131.405 133.108 124.963C136.459 119.574 135.41 109.451 126.536 103.962C123.655 102.18 119.781 100.131 114.405 99.156C109.03 98.1811 101.98 98.2498 92.7472 100.966C89.7023 101.861 84.3022 104.915 77.8505 109.118C77.2345 109.52 76.6123 109.929 75.9852 110.346ZM34.272 130.001C32.1458 129.344 30.492 129.02 29.2568 128.908C26.8895 128.691 24.7209 128.824 23.098 129.322C21.4923 129.816 20.7835 130.532 20.5047 131.279C20.1939 132.112 20.3056 132.424 20.3069 132.428L20.3073 132.429C20.3095 132.436 20.3132 132.446 20.3388 132.473C20.3724 132.507 20.4611 132.585 20.6502 132.675C21.5503 133.108 23.5739 133.314 26.5196 132.631C28.5098 132.169 31.1557 131.308 34.272 130.001Z" fill="#000000"/>
<path fill-rule="evenodd" clip-rule="evenodd" d="M103.5 201.204C157.46 201.204 201.204 157.46 201.204 103.5C201.204 49.5396 157.46 5.796 103.5 5.796C49.5396 5.796 5.796 49.5396 5.796 103.5C5.796 157.46 49.5396 201.204 103.5 201.204ZM103.5 207C160.661 207 207 160.661 207 103.5C207 46.3385 160.661 0 103.5 0C46.3385 0 0 46.3385 0 103.5C0 160.661 46.3385 207 103.5 207Z" fill="#000000"/>
</svg>
